<?xml version="1.0" encoding="UTF-8"?>
<svg xmlns="http://www.w3.org/2000/svg" xmlns:xlink="http://www.w3.org/1999/xlink" width="100px" height="100px" viewBox="0 0 100 100" version="1.1">
<g id="surface1">
<path style=" stroke:none;fill-rule:nonzero;fill:rgb(0%,0%,0%);fill-opacity:1;" d="M 70.832031 49.992188 C 70.832031 61.492188 61.542969 70.824219 50.039062 70.824219 L 50.035156 70.832031 C 38.554688 70.796875 29.273438 61.476562 29.289062 50 L 20.957031 50 C 20.957031 64.667969 31.746094 76.804688 45.871094 78.832031 L 45.871094 91.660156 L 45.910156 91.660156 L 45.910156 91.667969 L 54.246094 91.667969 L 54.246094 78.832031 L 54.207031 78.832031 C 68.546875 76.777344 79.191406 64.480469 79.167969 49.992188 Z M 70.832031 49.992188 "/>
<path style=" stroke:none;fill-rule:nonzero;fill:rgb(0%,0%,0%);fill-opacity:1;" d="M 50 62.5 C 56.917969 62.5 62.460938 56.917969 62.460938 50 L 62.5 20.832031 C 62.5 13.917969 56.917969 8.332031 50 8.332031 C 43.082031 8.332031 37.5 13.917969 37.5 20.832031 L 37.5 50 C 37.5 56.917969 43.082031 62.5 50 62.5 Z M 50 62.5 "/>
</g>
</svg>
